<svg width="133" height="23" viewBox="0 0 133 23" fill="none" xmlns="http://www.w3.org/2000/svg">
<g clip-path="url(#clip0)">
<path d="M130.793 11.7939C129.639 11.7939 128.71 10.8659 128.71 9.71091C128.71 8.55691 129.639 7.62891 130.793 7.62891C131.946 7.62891 132.875 8.55691 132.875 9.71091C132.853 10.8659 131.924 11.7939 130.793 11.7939ZM130.793 7.85391C129.773 7.85391 128.959 8.71491 128.959 9.70991C128.959 10.7289 129.796 11.5669 130.793 11.5669C131.788 11.5669 132.626 10.7079 132.626 9.70991C132.626 8.71491 131.788 7.85391 130.793 7.85391ZM131.336 10.7979L130.771 9.86891H130.384V10.7979H130.135V8.55691H130.86C131.247 8.55691 131.563 8.82791 131.563 9.21391C131.563 9.55391 131.336 9.75791 131.042 9.84791L131.631 10.7989H131.336V10.7979ZM130.838 8.80691H130.384V9.62091H130.838C131.109 9.62091 131.315 9.46191 131.315 9.21291C131.314 8.98791 131.108 8.80691 130.838 8.80691Z" fill="#414141"/>
<path d="M100.999 7.69702C100.93 7.69702 100.906 7.72002 100.274 7.74202C99.617 7.76402 98.416 7.78702 95.924 7.78702H94.771H94.068H92.914C90.445 7.78702 89.225 7.76402 88.566 7.74202C87.932 7.72002 87.911 7.69702 87.842 7.69702C87.547 7.69702 87.547 7.87902 87.547 8.44502V10.64C87.547 10.753 87.547 11.048 87.796 11.048C88.068 11.048 88.113 10.957 88.544 10.074C88.815 9.46302 89.381 8.57902 92.644 8.53502C92.981 8.55702 93.118 8.62502 93.118 9.14602V20.286C93.118 21.214 93.118 21.87 91.919 21.938C91.42 21.983 91.08 22.004 91.08 22.344C91.08 22.707 91.397 22.707 91.577 22.707C92.032 22.707 93.977 22.617 94.386 22.617C95.179 22.617 96.423 22.707 97.217 22.707C97.395 22.707 97.715 22.707 97.715 22.344C97.715 21.983 97.375 21.959 96.876 21.938C95.675 21.87 95.675 21.213 95.675 20.239V9.32702C95.675 8.69202 95.745 8.57902 96.445 8.53502C99.434 8.62502 99.976 9.46302 100.249 10.052C100.679 10.935 100.725 11.025 100.997 11.025C101.247 11.025 101.247 10.731 101.247 10.619V8.42102C101.292 7.87902 101.292 7.69702 100.999 7.69702Z" fill="#414141"/>
<path d="M75.12 18.904C74.894 18.904 74.849 18.994 74.418 19.832C73.355 21.869 71.883 21.869 70.819 21.869C68.802 21.869 68.304 21.598 68.304 19.898V15.777C68.304 15.054 68.485 15.054 69.64 15.054C71.609 15.054 72.266 15.075 72.786 16.933C72.899 17.386 73.057 17.499 73.238 17.499C73.535 17.499 73.535 17.159 73.535 17.024C73.535 16.84 73.464 16.004 73.464 15.821C73.464 15.303 73.625 12.835 73.625 12.495C73.625 12.224 73.513 12.155 73.354 12.155C73.24 12.155 73.103 12.2 72.991 12.518C72.56 13.786 72.335 14.307 69.686 14.307C68.305 14.307 68.305 14.125 68.305 13.354V9.89205C68.305 8.69204 68.394 8.53304 69.594 8.53304C72.99 8.53304 73.579 9.44004 73.852 10.073C74.282 10.956 74.327 11.046 74.598 11.046C74.847 11.046 74.847 10.752 74.847 10.638V8.44405C74.847 7.90105 74.847 7.69604 74.552 7.69604C74.484 7.69604 74.462 7.71904 73.828 7.74104C73.172 7.76304 71.949 7.78604 69.481 7.78604H68.326C66.289 7.78604 65.269 7.76304 64.725 7.74104C64.205 7.71904 64.182 7.69604 64.136 7.69604C63.978 7.69604 63.661 7.69605 63.661 8.03605C63.661 8.39805 64.001 8.42105 64.522 8.44405C65.721 8.51205 65.721 9.16804 65.721 10.143V20.264C65.721 21.237 65.721 21.893 64.522 21.961C64.022 22.006 63.661 22.029 63.661 22.369C63.661 22.73 63.978 22.73 64.159 22.73C64.318 22.73 64.522 22.709 64.907 22.685C65.292 22.661 65.88 22.638 66.877 22.638H67.171C67.307 22.638 68.441 22.661 69.797 22.685C71.178 22.706 72.853 22.73 74.075 22.73C74.779 22.73 75.004 22.459 75.026 22.005C75.095 21.122 75.367 19.583 75.367 19.267C75.393 19.107 75.324 18.904 75.12 18.904Z" fill="#414141"/>
<path d="M114.221 18.904C113.993 18.904 113.949 18.994 113.518 19.832C112.454 21.869 110.981 21.869 109.917 21.869C107.901 21.869 107.404 21.598 107.404 19.898V15.777C107.404 15.054 107.586 15.054 108.739 15.054C110.709 15.054 111.367 15.075 111.886 16.933C111.998 17.386 112.158 17.499 112.338 17.499C112.633 17.499 112.633 17.159 112.633 17.024C112.633 16.84 112.565 16.004 112.565 15.821C112.565 15.303 112.723 12.835 112.723 12.495C112.723 12.224 112.612 12.155 112.453 12.155C112.339 12.155 112.205 12.2 112.093 12.518C111.661 13.786 111.435 14.307 108.785 14.307C107.405 14.307 107.405 14.125 107.405 13.354V9.89205C107.405 8.69204 107.495 8.53304 108.695 8.53304C112.092 8.53304 112.678 9.44004 112.951 10.073C113.383 10.956 113.426 11.046 113.698 11.046C113.947 11.046 113.947 10.752 113.947 10.638V8.44405C113.947 7.90105 113.947 7.69604 113.653 7.69604C113.585 7.69604 113.562 7.71904 112.927 7.74104C112.272 7.76304 111.048 7.78604 108.581 7.78604H107.426C105.388 7.78604 104.37 7.76304 103.824 7.74104C103.304 7.71904 103.281 7.69604 103.238 7.69604C103.078 7.69604 102.759 7.69605 102.759 8.03605C102.759 8.39805 103.1 8.42105 103.62 8.44405C104.819 8.51205 104.819 9.16804 104.819 10.143V20.264C104.819 21.237 104.819 21.893 103.62 21.961C103.122 22.006 102.759 22.029 102.759 22.369C102.759 22.73 103.077 22.73 103.257 22.73C103.417 22.73 103.62 22.709 104.006 22.685C104.389 22.662 104.978 22.638 105.975 22.638H106.272C106.407 22.638 107.536 22.661 108.897 22.685C110.278 22.706 111.955 22.73 113.177 22.73C113.878 22.73 114.104 22.459 114.127 22.005C114.194 21.122 114.467 19.583 114.467 19.267C114.491 19.107 114.425 18.904 114.221 18.904Z" fill="#414141"/>
<path d="M82.659 13.4691C80.712 12.6561 79.286 12.0431 79.286 10.3221C79.286 9.3721 80.057 7.9911 81.958 8.0131C83.995 8.0351 84.426 9.3721 84.721 10.3221C84.969 11.0701 85.061 11.2281 85.31 11.2281C85.649 11.2281 85.649 11.0241 85.649 10.5031C85.649 8.3521 85.649 8.1271 85.353 7.9681C85.015 7.7861 83.567 7.4021 82.163 7.4021C79.061 7.4021 77.34 9.3491 77.34 11.6121C77.34 14.1941 79.263 15.1681 81.256 16.0281C83.021 16.8421 84.676 17.7701 84.676 19.6731C84.676 21.6441 82.75 22.3211 81.733 22.3211C79.99 22.3211 78.315 20.8501 77.861 18.7211C77.817 18.4941 77.77 18.2461 77.567 18.2461C77.271 18.2461 77.251 18.5861 77.251 18.6741C77.228 19.5591 77.341 20.6001 77.388 20.9161C77.454 21.5251 77.545 22.0251 77.818 22.2071C78.246 22.5231 79.47 22.9981 81.371 22.9981C84.632 22.9981 86.625 20.7361 86.625 18.0191C86.599 15.2581 84.04 14.0591 82.659 13.4691Z" fill="#414141"/>
<path d="M25.063 7.4021C20.377 7.4021 16.821 10.7761 16.821 15.1681C16.821 19.8321 20.76 23.0001 24.995 23.0001C29.115 23.0001 33.123 19.6721 33.123 14.9411C33.145 10.7291 29.591 7.4021 25.063 7.4021ZM25.198 22.3441C21.983 22.3441 19.674 18.6101 19.674 14.6701C19.674 11.2051 21.825 8.0821 24.791 8.0821C28.594 8.0821 30.292 12.1581 30.292 15.0551C30.292 18.5631 28.526 22.3441 25.198 22.3441Z" fill="#414141"/>
<path d="M15.304 1.85498C15.259 1.85498 15.236 1.89998 14.307 1.92298C13.402 1.94498 11.591 1.98998 7.991 1.98998H7.245C3.826 1.98998 2.558 1.94398 1.675 1.92298C0.814 1.87798 0.769 1.85498 0.702 1.85498C0.453 1.85498 0 1.85498 0 2.33098C0 2.80598 0.521 2.85198 1.246 2.91998C2.966 3.03298 2.966 3.96098 2.966 5.38698V14.715V19.719C2.966 20.873 2.966 21.666 1.494 21.756C0.883 21.824 0.475 21.846 0.475 22.254C0.475 22.684 0.86 22.684 1.086 22.684C1.653 22.684 4.097 22.573 4.595 22.573C5.569 22.573 7.154 22.684 8.127 22.684C8.354 22.684 8.738 22.684 8.738 22.254C8.738 21.801 8.331 21.777 7.697 21.756C6.225 21.666 6.225 20.873 6.225 19.674V14.736V14.353C6.225 13.378 6.225 12.972 6.791 12.835C7.153 12.745 8.761 12.745 9.779 12.745C10.64 12.745 12.859 12.745 13.334 14.624C13.402 14.806 13.629 15.688 13.718 15.938C13.786 16.116 13.922 16.502 14.262 16.481C14.669 16.458 14.669 16.073 14.669 15.823L14.533 14.194C14.465 13.401 14.465 12.813 14.465 12.497C14.465 11.975 14.579 9.61998 14.579 9.14498C14.579 8.80498 14.465 8.57898 14.172 8.55498C13.854 8.53298 13.696 8.82598 13.629 9.11998C13.198 10.909 12.699 11.679 9.893 11.679C9.373 11.679 7.312 11.679 6.791 11.613C6.339 11.545 6.249 11.5 6.249 9.64398V4.79798C6.249 3.16798 6.838 3.10098 8.014 3.10098C13.403 3.10098 13.856 3.84798 14.874 6.15698C15.01 6.45098 15.145 6.85898 15.531 6.85898C15.916 6.85898 15.916 6.31598 15.916 6.20198V2.48898C15.893 2.03698 15.849 1.85498 15.304 1.85498Z" fill="#414141"/>
<path d="M47.114 21.9821C46.435 21.8921 46.117 21.2791 45.619 20.4411L43.287 16.3241C42.744 15.3261 42.451 15.1681 42.133 14.9861C42.948 14.8281 45.416 14.2401 45.416 11.4311C45.416 10.5941 45.053 7.67407 40.82 7.67407C40.095 7.67407 36.926 7.76407 36.269 7.76407C35.975 7.76407 34.798 7.67407 34.57 7.67407C33.778 7.67407 33.687 7.67407 33.687 8.01307C33.687 8.35307 34.027 8.37507 34.548 8.39907C35.724 8.46607 35.724 9.12307 35.724 10.0981V20.2641C35.724 21.2581 35.724 21.8931 34.548 21.9851C34.049 22.0061 33.687 22.0301 33.687 22.3701C33.687 22.7311 34.005 22.7101 34.186 22.7101C34.616 22.7101 36.563 22.6201 36.97 22.6201C37.061 22.6201 39.393 22.7101 39.845 22.7101C40.026 22.7101 40.344 22.7311 40.344 22.3921C40.344 22.0311 40.004 22.0071 39.483 21.9861C38.284 21.9161 38.284 21.2591 38.284 20.2651V15.9621C38.284 15.5561 38.329 15.4191 38.737 15.4191C39.824 15.4191 39.938 15.5091 40.458 16.5521L43.355 22.0071C43.626 22.5051 43.717 22.7321 44.147 22.7321C44.374 22.7321 47 22.7321 47.294 22.7321C47.452 22.7321 47.701 22.6871 47.701 22.4371C47.748 22.1641 47.611 22.0721 47.114 21.9821ZM39.506 14.7831C38.307 14.7831 38.307 14.7361 38.307 13.9001V9.87007C38.307 8.94107 38.329 8.35307 39.439 8.35307C42.404 8.35307 42.744 10.9111 42.744 11.7721C42.744 14.7831 40.367 14.7831 39.506 14.7831Z" fill="#414141"/>
<path d="M62.147 21.9821C61.469 21.8921 61.151 21.2791 60.652 20.4411L58.32 16.3241C57.777 15.3261 57.484 15.1681 57.167 14.9861C57.981 14.8281 60.449 14.2401 60.449 11.4311C60.449 10.5941 60.087 7.67407 55.854 7.67407C55.128 7.67407 51.96 7.76407 51.302 7.76407C51.008 7.76407 49.831 7.67407 49.604 7.67407C48.811 7.67407 48.72 7.67407 48.72 8.01307C48.72 8.35307 49.06 8.37507 49.581 8.39907C50.758 8.46607 50.758 9.12307 50.758 10.0981V20.2641C50.758 21.2581 50.758 21.8931 49.581 21.9851C49.082 22.0061 48.72 22.0301 48.72 22.3701C48.72 22.7311 49.038 22.7101 49.22 22.7101C49.65 22.7101 51.596 22.6201 52.003 22.6201C52.094 22.6201 54.427 22.7101 54.879 22.7101C55.062 22.7101 55.377 22.7311 55.377 22.3921C55.377 22.0311 55.037 22.0071 54.517 21.9861C53.317 21.9161 53.317 21.2591 53.317 20.2651V15.9621C53.317 15.5561 53.363 15.4191 53.769 15.4191C54.857 15.4191 54.97 15.5091 55.49 16.5521L58.388 22.0071C58.659 22.5051 58.749 22.7321 59.18 22.7321C59.406 22.7321 62.033 22.7321 62.326 22.7321C62.485 22.7321 62.734 22.6871 62.734 22.4371C62.759 22.1641 62.646 22.0721 62.147 21.9821ZM54.54 14.7831C53.339 14.7831 53.339 14.7361 53.339 13.9001V9.87007C53.339 8.94107 53.362 8.35307 54.471 8.35307C57.436 8.35307 57.778 10.9111 57.778 11.7721C57.755 14.7831 55.401 14.7831 54.54 14.7831Z" fill="#414141"/>
<path d="M129.253 21.982C128.574 21.892 128.257 21.279 127.759 20.441L125.449 16.345C124.905 15.349 124.611 15.191 124.296 15.009C125.109 14.849 127.579 14.261 127.579 11.454C127.579 10.617 127.216 7.69604 122.981 7.69604C122.256 7.69604 119.087 7.78705 118.431 7.78705C118.136 7.78705 116.958 7.69604 116.733 7.69604C115.94 7.69604 115.85 7.69605 115.85 8.03605C115.85 8.37505 116.189 8.39804 116.709 8.42104C117.886 8.48804 117.886 9.14605 117.886 10.119V20.285C117.886 21.279 117.886 21.914 116.709 22.004C116.211 22.029 115.85 22.051 115.85 22.391C115.85 22.752 116.165 22.731 116.348 22.731C116.778 22.731 118.725 22.639 119.131 22.639C119.223 22.639 121.555 22.731 122.007 22.731C122.189 22.731 122.505 22.752 122.505 22.415C122.505 22.052 122.167 22.03 121.645 22.005C120.447 21.939 120.447 21.28 120.447 20.286V15.985C120.447 15.575 120.49 15.44 120.898 15.44C121.986 15.44 122.099 15.532 122.62 16.573L125.517 22.03C125.788 22.528 125.879 22.753 126.309 22.753C126.538 22.753 129.163 22.753 129.456 22.753C129.614 22.753 129.863 22.708 129.863 22.458C129.888 22.164 129.773 22.072 129.253 21.982ZM121.646 14.783C120.448 14.783 120.448 14.736 120.448 13.9V9.87004C120.448 8.94104 120.47 8.35304 121.578 8.35304C124.546 8.35304 124.885 10.911 124.885 11.772C124.884 14.783 122.506 14.783 121.646 14.783Z" fill="#414141"/>
</g>
<defs>
<clipPath id="clip0">
<rect width="133" height="23" fill="white"/>
</clipPath>
</defs>
</svg>
